<svg xmlns="http://www.w3.org/2000/svg" width="59" height="32"><path d="m24.348 8.596 2.438 2.308-4.524-.003v11.196h11.826v-4.281l2.435 2.305V8.596H24.349zm9.632 8.949-6.911-6.543h6.911v6.543zm-2.146 2.914h-7.702v-7.53h.544v7.02h7.157v.51zm-5.883 3.128-.285.586-.285-.586h-.239l.415.781v.455h.216v-.455l.414-.781h-.238zm.357 1.236.1-.288h.479l.101.288h.224l-.468-1.236h-.193l-.467 1.236h.223zm.34-.974.179.513h-.358l.179-.513zm1.133.483a.325.325 0 0 0 .063.411c.073.065.172.097.294.097s.228-.033.316-.099l.07.082h.239l-.182-.215a.62.62 0 0 0 .107-.375h-.179a.49.49 0 0 1-.052.227l-.239-.282.084-.061c.059-.043.102-.086.128-.129s.039-.091.039-.143c0-.078-.029-.143-.087-.196s-.131-.08-.221-.08c-.1 0-.179.028-.238.085s-.088.132-.088.229c0 .04.009.081.028.123s.053.094.101.155a.726.726 0 0 0-.184.171zm.558.274a.32.32 0 0 1-.195.07c-.062 0-.111-.018-.148-.053s-.055-.082-.055-.139c0-.066.034-.125.102-.177l.026-.019.27.318zm-.222-.548c-.058-.072-.087-.132-.087-.179 0-.041.012-.076.036-.103s.056-.041.096-.041c.037 0 .068.012.093.035s.037.05.037.082a.153.153 0 0 1-.053.12l-.026.021-.094.065zm2.013.672a.445.445 0 0 0 .146-.309h-.214c-.011.088-.038.151-.081.189s-.106.057-.19.057c-.092 0-.162-.035-.211-.105s-.071-.172-.071-.306v-.11c.001-.132.027-.232.076-.3s.122-.103.216-.103c.08 0 .141.02.183.059s.068.103.078.192h.214c-.014-.135-.062-.24-.145-.314s-.193-.111-.329-.111a.465.465 0 0 0-.445.278.73.73 0 0 0-.062.308v.115c.002.114.023.214.064.3s.099.153.173.2a.49.49 0 0 0 .261.07.503.503 0 0 0 .339-.11zm1.262-.173a.76.76 0 0 0 .063-.319v-.069c-.001-.121-.022-.226-.065-.317a.477.477 0 0 0-.448-.282.482.482 0 0 0-.449.285.748.748 0 0 0-.064.319v.07c.001.118.022.223.065.313s.104.16.182.21a.497.497 0 0 0 .268.073c.101 0 .191-.024.268-.073s.138-.119.18-.211zm-.23-.699a.539.539 0 0 1 .078.315v.065c0 .139-.026.245-.077.318s-.124.109-.219.109c-.094 0-.168-.037-.221-.111s-.079-.179-.079-.315v-.071c.001-.133.028-.236.08-.308s.125-.11.218-.11c.095 0 .168.037.22.11z"/></svg>