<svg xmlns="http://www.w3.org/2000/svg" width="32" height="32"><path d="M32 6.078c-1.19.522-2.458.868-3.78 1.036a6.555 6.555 0 0 0 2.873-3.58l.013-.046a12.858 12.858 0 0 1-4.076 1.574l-.084.014A6.559 6.559 0 0 0 22.154 3c-3.632 0-6.556 2.948-6.556 6.562 0 .52.044 1.02.152 1.496-5.454-.266-10.28-2.88-13.522-6.862a6.533 6.533 0 0 0-.898 3.316 6.56 6.56 0 0 0 2.891 5.437l.023.015a6.454 6.454 0 0 1-2.997-.825l.033.017v.072c0 3.188 2.274 5.836 5.256 6.446a6.408 6.408 0 0 1-1.669.216h-.054.003a5.842 5.842 0 0 1-1.279-.118l.037.006c.85 2.598 3.262 4.508 6.13 4.57a13.098 13.098 0 0 1-8.12 2.798h-.015.001c-.538 0-1.054-.024-1.57-.09C2.826 27.902 6.287 29 10.004 29h.063-.003c12.072 0 18.672-10 18.672-18.668 0-.29-.01-.57-.024-.848a13.186 13.186 0 0 0 3.258-3.359l.03-.047z"/></svg>